<mxfile host="app.diagrams.net" modified="2020-10-08T04:19:07.122Z" agent="5.0 (Windows)" etag="hebFx0K8wHfwHA_csTbS" version="13.7.8" type="github">
  <diagram name="Page-1" id="e7e014a7-5840-1c2e-5031-d8a46d1fe8dd">
    <mxGraphModel dx="868" dy="1277" grid="1" gridSize="10" guides="1" tooltips="1" connect="1" arrows="1" fold="1" page="1" pageScale="1" pageWidth="1169" pageHeight="826" background="#ffffff" math="0" shadow="0">
      <root>
        <mxCell id="0" />
        <mxCell id="1" parent="0" />
        <mxCell id="tmU0NbPpEFiXvQvpC27V-90" value="" style="whiteSpace=wrap;html=1;" parent="1" vertex="1">
          <mxGeometry x="490" y="-10" width="460" height="1240" as="geometry" />
        </mxCell>
        <mxCell id="tmU0NbPpEFiXvQvpC27V-109" value="" style="whiteSpace=wrap;html=1;" parent="1" vertex="1">
          <mxGeometry x="510" y="480" width="390" height="390" as="geometry" />
        </mxCell>
        <mxCell id="tmU0NbPpEFiXvQvpC27V-71" value="" style="rounded=0;whiteSpace=wrap;html=1;" parent="1" vertex="1">
          <mxGeometry x="970" y="330" width="180" height="150" as="geometry" />
        </mxCell>
        <mxCell id="tmU0NbPpEFiXvQvpC27V-63" value="" style="rounded=0;whiteSpace=wrap;html=1;" parent="1" vertex="1">
          <mxGeometry x="510" width="150" height="470" as="geometry" />
        </mxCell>
        <mxCell id="tmU0NbPpEFiXvQvpC27V-54" style="rounded=0;orthogonalLoop=1;jettySize=auto;html=1;entryX=0;entryY=0.5;entryDx=0;entryDy=0;endArrow=none;endFill=0;" parent="1" source="tmU0NbPpEFiXvQvpC27V-41" target="tmU0NbPpEFiXvQvpC27V-47" edge="1">
          <mxGeometry relative="1" as="geometry">
            <mxPoint x="350" y="190" as="sourcePoint" />
          </mxGeometry>
        </mxCell>
        <mxCell id="tmU0NbPpEFiXvQvpC27V-78" style="edgeStyle=none;rounded=0;orthogonalLoop=1;jettySize=auto;html=1;entryX=0;entryY=0;entryDx=0;entryDy=0;endArrow=none;endFill=0;" parent="1" source="tmU0NbPpEFiXvQvpC27V-41" target="tmU0NbPpEFiXvQvpC27V-74" edge="1">
          <mxGeometry relative="1" as="geometry" />
        </mxCell>
        <mxCell id="tmU0NbPpEFiXvQvpC27V-94" style="edgeStyle=none;rounded=0;orthogonalLoop=1;jettySize=auto;html=1;entryX=0;entryY=0.5;entryDx=0;entryDy=0;endArrow=none;endFill=0;" parent="1" source="tmU0NbPpEFiXvQvpC27V-41" target="tmU0NbPpEFiXvQvpC27V-48" edge="1">
          <mxGeometry relative="1" as="geometry" />
        </mxCell>
        <mxCell id="tmU0NbPpEFiXvQvpC27V-99" style="edgeStyle=none;rounded=0;orthogonalLoop=1;jettySize=auto;html=1;entryX=0;entryY=0.5;entryDx=0;entryDy=0;endArrow=none;endFill=0;dashed=1;" parent="1" source="tmU0NbPpEFiXvQvpC27V-41" target="tmU0NbPpEFiXvQvpC27V-95" edge="1">
          <mxGeometry relative="1" as="geometry" />
        </mxCell>
        <mxCell id="tmU0NbPpEFiXvQvpC27V-41" value="User" style="shape=umlActor;verticalLabelPosition=bottom;verticalAlign=top;html=1;outlineConnect=0;" parent="1" vertex="1">
          <mxGeometry x="60" y="200" width="30" height="60" as="geometry" />
        </mxCell>
        <mxCell id="tmU0NbPpEFiXvQvpC27V-56" style="edgeStyle=none;rounded=0;orthogonalLoop=1;jettySize=auto;html=1;entryX=1;entryY=0.5;entryDx=0;entryDy=0;endArrow=none;endFill=0;" parent="1" source="tmU0NbPpEFiXvQvpC27V-43" target="tmU0NbPpEFiXvQvpC27V-48" edge="1">
          <mxGeometry relative="1" as="geometry" />
        </mxCell>
        <mxCell id="tmU0NbPpEFiXvQvpC27V-57" style="edgeStyle=none;rounded=0;orthogonalLoop=1;jettySize=auto;html=1;entryX=1;entryY=0.5;entryDx=0;entryDy=0;endArrow=none;endFill=0;" parent="1" source="tmU0NbPpEFiXvQvpC27V-43" target="tmU0NbPpEFiXvQvpC27V-46" edge="1">
          <mxGeometry relative="1" as="geometry" />
        </mxCell>
        <mxCell id="tmU0NbPpEFiXvQvpC27V-58" style="edgeStyle=none;rounded=0;orthogonalLoop=1;jettySize=auto;html=1;entryX=1;entryY=0.5;entryDx=0;entryDy=0;endArrow=none;endFill=0;" parent="1" source="tmU0NbPpEFiXvQvpC27V-43" target="tmU0NbPpEFiXvQvpC27V-47" edge="1">
          <mxGeometry relative="1" as="geometry" />
        </mxCell>
        <mxCell id="tmU0NbPpEFiXvQvpC27V-87" style="edgeStyle=none;rounded=0;orthogonalLoop=1;jettySize=auto;html=1;entryX=0.5;entryY=0;entryDx=0;entryDy=0;endArrow=none;endFill=0;" parent="1" source="tmU0NbPpEFiXvQvpC27V-43" target="tmU0NbPpEFiXvQvpC27V-75" edge="1">
          <mxGeometry relative="1" as="geometry" />
        </mxCell>
        <mxCell id="tmU0NbPpEFiXvQvpC27V-103" style="edgeStyle=none;rounded=0;orthogonalLoop=1;jettySize=auto;html=1;entryX=1;entryY=0;entryDx=0;entryDy=0;endArrow=none;endFill=0;" parent="1" source="tmU0NbPpEFiXvQvpC27V-43" target="tmU0NbPpEFiXvQvpC27V-95" edge="1">
          <mxGeometry relative="1" as="geometry" />
        </mxCell>
        <mxCell id="tmU0NbPpEFiXvQvpC27V-43" value="ASU IT Deparment" style="shape=umlActor;verticalLabelPosition=bottom;verticalAlign=top;html=1;outlineConnect=0;" parent="1" vertex="1">
          <mxGeometry x="1030" y="190" width="30" height="60" as="geometry" />
        </mxCell>
        <mxCell id="tmU0NbPpEFiXvQvpC27V-65" style="edgeStyle=none;rounded=0;orthogonalLoop=1;jettySize=auto;html=1;entryX=0;entryY=0.5;entryDx=0;entryDy=0;endArrow=none;endFill=0;dashed=1;exitX=1;exitY=1;exitDx=0;exitDy=0;" parent="1" source="tmU0NbPpEFiXvQvpC27V-47" target="tmU0NbPpEFiXvQvpC27V-51" edge="1">
          <mxGeometry relative="1" as="geometry" />
        </mxCell>
        <mxCell id="tmU0NbPpEFiXvQvpC27V-46" value="Manage Account" style="ellipse;whiteSpace=wrap;html=1;" parent="1" vertex="1">
          <mxGeometry x="525" y="100" width="120" height="80" as="geometry" />
        </mxCell>
        <mxCell id="tmU0NbPpEFiXvQvpC27V-47" value="Manage Profile" style="ellipse;whiteSpace=wrap;html=1;" parent="1" vertex="1">
          <mxGeometry x="525" y="190" width="120" height="80" as="geometry" />
        </mxCell>
        <mxCell id="tmU0NbPpEFiXvQvpC27V-48" value="Obtaining Support" style="ellipse;whiteSpace=wrap;html=1;" parent="1" vertex="1">
          <mxGeometry x="525" y="10" width="120" height="80" as="geometry" />
        </mxCell>
        <mxCell id="tmU0NbPpEFiXvQvpC27V-60" style="edgeStyle=none;rounded=0;orthogonalLoop=1;jettySize=auto;html=1;endArrow=none;endFill=0;" parent="1" source="tmU0NbPpEFiXvQvpC27V-49" target="tmU0NbPpEFiXvQvpC27V-41" edge="1">
          <mxGeometry relative="1" as="geometry" />
        </mxCell>
        <mxCell id="tmU0NbPpEFiXvQvpC27V-49" value="Direct Chat / Calling&lt;br&gt;(with other User)" style="ellipse;whiteSpace=wrap;html=1;" parent="1" vertex="1">
          <mxGeometry x="525" y="280" width="120" height="80" as="geometry" />
        </mxCell>
        <mxCell id="tmU0NbPpEFiXvQvpC27V-51" value="Suggest Connection (with other User)" style="ellipse;whiteSpace=wrap;html=1;" parent="1" vertex="1">
          <mxGeometry x="1000" y="365" width="120" height="80" as="geometry" />
        </mxCell>
        <mxCell id="tmU0NbPpEFiXvQvpC27V-53" style="rounded=0;orthogonalLoop=1;jettySize=auto;html=1;entryX=0;entryY=0.5;entryDx=0;entryDy=0;endArrow=none;endFill=0;" parent="1" source="tmU0NbPpEFiXvQvpC27V-41" target="tmU0NbPpEFiXvQvpC27V-46" edge="1">
          <mxGeometry relative="1" as="geometry">
            <mxPoint x="290" y="100" as="sourcePoint" />
          </mxGeometry>
        </mxCell>
        <mxCell id="tmU0NbPpEFiXvQvpC27V-62" style="edgeStyle=none;rounded=0;orthogonalLoop=1;jettySize=auto;html=1;endArrow=none;endFill=0;" parent="1" source="tmU0NbPpEFiXvQvpC27V-61" target="tmU0NbPpEFiXvQvpC27V-41" edge="1">
          <mxGeometry relative="1" as="geometry" />
        </mxCell>
        <mxCell id="tmU0NbPpEFiXvQvpC27V-61" value="Add Contact&lt;br&gt;(with other User)" style="ellipse;whiteSpace=wrap;html=1;" parent="1" vertex="1">
          <mxGeometry x="525" y="370" width="120" height="80" as="geometry" />
        </mxCell>
        <mxCell id="tmU0NbPpEFiXvQvpC27V-64" value="Release 1" style="text;html=1;strokeColor=none;fillColor=none;align=center;verticalAlign=middle;whiteSpace=wrap;rounded=0;" parent="1" vertex="1">
          <mxGeometry x="590" y="450" width="70" height="20" as="geometry" />
        </mxCell>
        <mxCell id="tmU0NbPpEFiXvQvpC27V-69" value="&amp;lt;&amp;lt;extend&amp;gt;&amp;gt;" style="text;html=1;strokeColor=none;fillColor=none;align=center;verticalAlign=middle;whiteSpace=wrap;rounded=0;rotation=22;" parent="1" vertex="1">
          <mxGeometry x="785" y="310" width="80" height="30" as="geometry" />
        </mxCell>
        <mxCell id="tmU0NbPpEFiXvQvpC27V-72" value="Release 2" style="text;html=1;strokeColor=none;fillColor=none;align=center;verticalAlign=middle;whiteSpace=wrap;rounded=0;" parent="1" vertex="1">
          <mxGeometry x="1080" y="460" width="70" height="20" as="geometry" />
        </mxCell>
        <mxCell id="tmU0NbPpEFiXvQvpC27V-108" style="edgeStyle=none;rounded=0;orthogonalLoop=1;jettySize=auto;html=1;endArrow=none;endFill=0;exitX=1;exitY=1;exitDx=0;exitDy=0;" parent="1" source="tmU0NbPpEFiXvQvpC27V-74" target="tmU0NbPpEFiXvQvpC27V-107" edge="1">
          <mxGeometry relative="1" as="geometry" />
        </mxCell>
        <mxCell id="tmU0NbPpEFiXvQvpC27V-74" value="Join Social Group" style="ellipse;whiteSpace=wrap;html=1;" parent="1" vertex="1">
          <mxGeometry x="525" y="660" width="120" height="80" as="geometry" />
        </mxCell>
        <mxCell id="tmU0NbPpEFiXvQvpC27V-75" value="Manage Social Group" style="ellipse;whiteSpace=wrap;html=1;" parent="1" vertex="1">
          <mxGeometry x="765" y="510" width="120" height="80" as="geometry" />
        </mxCell>
        <mxCell id="tmU0NbPpEFiXvQvpC27V-76" value="Manage Members (User)" style="ellipse;whiteSpace=wrap;html=1;" parent="1" vertex="1">
          <mxGeometry x="765" y="600" width="120" height="80" as="geometry" />
        </mxCell>
        <mxCell id="tmU0NbPpEFiXvQvpC27V-83" value="Create Event" style="ellipse;whiteSpace=wrap;html=1;" parent="1" vertex="1">
          <mxGeometry x="765" y="685" width="120" height="80" as="geometry" />
        </mxCell>
        <mxCell id="tmU0NbPpEFiXvQvpC27V-92" value="Release 3" style="text;html=1;strokeColor=none;fillColor=none;align=center;verticalAlign=middle;whiteSpace=wrap;rounded=0;" parent="1" vertex="1">
          <mxGeometry x="880" y="1200" width="70" height="20" as="geometry" />
        </mxCell>
        <mxCell id="tmU0NbPpEFiXvQvpC27V-100" style="edgeStyle=none;rounded=0;orthogonalLoop=1;jettySize=auto;html=1;entryX=0;entryY=0.5;entryDx=0;entryDy=0;endArrow=none;endFill=0;" parent="1" source="tmU0NbPpEFiXvQvpC27V-95" target="tmU0NbPpEFiXvQvpC27V-75" edge="1">
          <mxGeometry relative="1" as="geometry" />
        </mxCell>
        <mxCell id="tmU0NbPpEFiXvQvpC27V-101" style="edgeStyle=none;rounded=0;orthogonalLoop=1;jettySize=auto;html=1;entryX=0;entryY=0.5;entryDx=0;entryDy=0;endArrow=none;endFill=0;" parent="1" source="tmU0NbPpEFiXvQvpC27V-95" target="tmU0NbPpEFiXvQvpC27V-76" edge="1">
          <mxGeometry relative="1" as="geometry" />
        </mxCell>
        <mxCell id="tmU0NbPpEFiXvQvpC27V-102" style="edgeStyle=none;rounded=0;orthogonalLoop=1;jettySize=auto;html=1;entryX=0;entryY=0.5;entryDx=0;entryDy=0;endArrow=none;endFill=0;" parent="1" source="tmU0NbPpEFiXvQvpC27V-95" target="tmU0NbPpEFiXvQvpC27V-83" edge="1">
          <mxGeometry relative="1" as="geometry" />
        </mxCell>
        <mxCell id="tmU0NbPpEFiXvQvpC27V-95" value="Request Create Social Group" style="ellipse;whiteSpace=wrap;html=1;" parent="1" vertex="1">
          <mxGeometry x="525" y="530" width="120" height="80" as="geometry" />
        </mxCell>
        <mxCell id="tmU0NbPpEFiXvQvpC27V-105" value="&amp;lt;&amp;lt;extend&amp;gt;&amp;gt;" style="text;html=1;strokeColor=none;fillColor=none;align=center;verticalAlign=middle;whiteSpace=wrap;rounded=0;rotation=37;" parent="1" vertex="1">
          <mxGeometry x="280" y="390" width="80" height="30" as="geometry" />
        </mxCell>
        <mxCell id="tmU0NbPpEFiXvQvpC27V-107" value="Group Calling / Texting" style="ellipse;whiteSpace=wrap;html=1;" parent="1" vertex="1">
          <mxGeometry x="690" y="770" width="120" height="80" as="geometry" />
        </mxCell>
        <mxCell id="tmU0NbPpEFiXvQvpC27V-111" value="&amp;lt;&amp;lt;Subsystem&amp;gt;&amp;gt;&lt;br&gt;Social Group" style="text;html=1;strokeColor=none;fillColor=none;align=center;verticalAlign=middle;whiteSpace=wrap;rounded=0;" parent="1" vertex="1">
          <mxGeometry x="510" y="480" width="100" height="30" as="geometry" />
        </mxCell>
        <mxCell id="tmU0NbPpEFiXvQvpC27V-112" value="&amp;lt;&amp;lt;Subsystem&amp;gt;&amp;gt;&lt;br&gt;Matching Algorithm" style="text;html=1;strokeColor=none;fillColor=none;align=center;verticalAlign=middle;whiteSpace=wrap;rounded=0;" parent="1" vertex="1">
          <mxGeometry x="970" y="330" width="110" height="30" as="geometry" />
        </mxCell>
        <mxCell id="jySNE7XPE8Xx5RKCnxvL-3" style="edgeStyle=orthogonalEdgeStyle;rounded=0;orthogonalLoop=1;jettySize=auto;html=1;exitX=0.5;exitY=1;exitDx=0;exitDy=0;" edge="1" parent="1" source="tmU0NbPpEFiXvQvpC27V-92" target="tmU0NbPpEFiXvQvpC27V-92">
          <mxGeometry relative="1" as="geometry" />
        </mxCell>
        <mxCell id="jySNE7XPE8Xx5RKCnxvL-4" value="Admin User" style="shape=umlActor;verticalLabelPosition=bottom;verticalAlign=top;html=1;" vertex="1" parent="1">
          <mxGeometry x="90" y="980" width="30" height="60" as="geometry" />
        </mxCell>
        <mxCell id="jySNE7XPE8Xx5RKCnxvL-5" value="" style="html=1;" vertex="1" parent="1">
          <mxGeometry x="510" y="882.5" width="160" height="327.5" as="geometry" />
        </mxCell>
        <mxCell id="jySNE7XPE8Xx5RKCnxvL-6" value="Create group roles" style="ellipse;whiteSpace=wrap;html=1;" vertex="1" parent="1">
          <mxGeometry x="525" y="910" width="120" height="60" as="geometry" />
        </mxCell>
        <mxCell id="jySNE7XPE8Xx5RKCnxvL-9" value="" style="endArrow=none;html=1;" edge="1" parent="1" source="jySNE7XPE8Xx5RKCnxvL-4" target="jySNE7XPE8Xx5RKCnxvL-6">
          <mxGeometry width="50" height="50" relative="1" as="geometry">
            <mxPoint x="190" y="1050" as="sourcePoint" />
            <mxPoint x="240" y="1000" as="targetPoint" />
          </mxGeometry>
        </mxCell>
        <mxCell id="jySNE7XPE8Xx5RKCnxvL-10" value="Assign/Remove roles from members" style="ellipse;whiteSpace=wrap;html=1;" vertex="1" parent="1">
          <mxGeometry x="525" y="992.5" width="125" height="65" as="geometry" />
        </mxCell>
        <mxCell id="jySNE7XPE8Xx5RKCnxvL-11" value="" style="endArrow=none;html=1;" edge="1" parent="1" source="jySNE7XPE8Xx5RKCnxvL-4" target="jySNE7XPE8Xx5RKCnxvL-10">
          <mxGeometry width="50" height="50" relative="1" as="geometry">
            <mxPoint x="460" y="1050" as="sourcePoint" />
            <mxPoint x="530" y="1000" as="targetPoint" />
          </mxGeometry>
        </mxCell>
        <mxCell id="jySNE7XPE8Xx5RKCnxvL-12" value="Make group announcements" style="ellipse;whiteSpace=wrap;html=1;" vertex="1" parent="1">
          <mxGeometry x="530" y="1070" width="120" height="60" as="geometry" />
        </mxCell>
        <mxCell id="jySNE7XPE8Xx5RKCnxvL-13" value="" style="endArrow=none;html=1;" edge="1" parent="1" source="jySNE7XPE8Xx5RKCnxvL-4" target="jySNE7XPE8Xx5RKCnxvL-12">
          <mxGeometry width="50" height="50" relative="1" as="geometry">
            <mxPoint x="480" y="1050" as="sourcePoint" />
            <mxPoint x="530" y="1000" as="targetPoint" />
          </mxGeometry>
        </mxCell>
        <mxCell id="jySNE7XPE8Xx5RKCnxvL-14" value="Host group events" style="ellipse;whiteSpace=wrap;html=1;" vertex="1" parent="1">
          <mxGeometry x="530" y="1140" width="125" height="60" as="geometry" />
        </mxCell>
        <mxCell id="jySNE7XPE8Xx5RKCnxvL-15" value="" style="endArrow=none;html=1;" edge="1" parent="1" source="jySNE7XPE8Xx5RKCnxvL-4" target="jySNE7XPE8Xx5RKCnxvL-14">
          <mxGeometry width="50" height="50" relative="1" as="geometry">
            <mxPoint x="480" y="1080" as="sourcePoint" />
            <mxPoint x="530" y="1030" as="targetPoint" />
          </mxGeometry>
        </mxCell>
      </root>
    </mxGraphModel>
  </diagram>
</mxfile>
